<svg width="272" height="272" viewBox="0 0 272 272" fill="none" xmlns="http://www.w3.org/2000/svg">
<rect width="272" height="272" rx="136" fill="white"/>
<path d="M70.72 145.5C70.72 145.564 70.848 145.521 71.104 145.372C71.36 145.201 71.584 144.881 71.776 144.412C71.9893 143.921 72.096 143.217 72.096 142.3V126.588C72.096 125.713 71.9893 125.052 71.776 124.604C71.584 124.135 71.36 123.815 71.104 123.644C70.848 123.473 70.72 123.42 70.72 123.484H82.304V126.684C81.92 125.404 80.768 124.764 78.848 124.764H74.4V133.852H79.904C80.3307 133.852 80.6933 133.788 80.992 133.66C81.2907 133.511 81.5147 133.361 81.664 133.212C81.8133 133.063 81.8987 132.967 81.92 132.924V136.028C81.8987 135.985 81.8133 135.889 81.664 135.74C81.5147 135.591 81.2907 135.452 80.992 135.324C80.7147 135.196 80.3627 135.132 79.936 135.132H74.4V144.22H79.392C80.352 144.22 81.1733 144.028 81.856 143.644C82.56 143.239 83.0613 142.727 83.36 142.108L82.784 145.5H70.72ZM101.072 145.5C101.456 145.436 101.648 145.244 101.648 144.924C101.648 144.54 101.488 144.113 101.168 143.644C100.848 143.153 100.667 142.876 100.624 142.812L96.1443 135.9L91.1203 142.62C90.8003 143.047 90.5443 143.431 90.3523 143.772C90.1816 144.092 90.0963 144.391 90.0963 144.668C90.0963 145.137 90.4376 145.415 91.1203 145.5H86.3203C86.3203 145.543 86.4483 145.489 86.7043 145.34C86.9603 145.191 87.3229 144.892 87.7923 144.444C88.2829 143.975 88.8696 143.281 89.5523 142.364L95.3763 134.652L90.2243 126.684C89.6269 125.767 89.0936 125.073 88.6243 124.604C88.1549 124.135 87.7709 123.825 87.4723 123.676C87.1736 123.505 87.0243 123.441 87.0243 123.484H92.3683C91.9629 123.569 91.7603 123.772 91.7603 124.092C91.7603 124.412 91.9949 124.935 92.4643 125.66L96.9123 132.572L101.552 126.428C102.214 125.553 102.544 124.849 102.544 124.316C102.544 123.825 102.224 123.548 101.584 123.484H106.352C106.352 123.463 106.214 123.516 105.936 123.644C105.68 123.751 105.339 123.996 104.912 124.38C104.507 124.743 104.038 125.287 103.504 126.012L97.6803 133.788L102.832 141.788C103.515 142.855 104.123 143.665 104.656 144.22C105.19 144.753 105.616 145.116 105.936 145.308C106.256 145.479 106.416 145.543 106.416 145.5H101.072ZM124.075 129.436C124.075 130.673 123.776 131.783 123.179 132.764C122.603 133.724 121.771 134.481 120.683 135.036C119.595 135.591 118.315 135.868 116.843 135.868C115.947 135.868 114.987 135.772 113.963 135.58V142.556C113.963 143.388 114.069 144.028 114.283 144.476C114.496 144.903 114.731 145.191 114.987 145.34C115.243 145.489 115.371 145.543 115.371 145.5H110.283C110.283 145.543 110.411 145.489 110.667 145.34C110.923 145.191 111.147 144.903 111.339 144.476C111.552 144.049 111.659 143.409 111.659 142.556V126.524C111.659 125.671 111.552 125.02 111.339 124.572C111.147 124.124 110.923 123.825 110.667 123.676C110.411 123.505 110.283 123.441 110.283 123.484H116.555C117.643 123.484 118.539 123.559 119.243 123.708C119.947 123.836 120.565 124.039 121.099 124.316C122.059 124.807 122.795 125.521 123.307 126.46C123.819 127.377 124.075 128.369 124.075 129.436ZM121.611 129.852C121.611 128.337 121.141 127.111 120.203 126.172C119.264 125.233 118.016 124.764 116.459 124.764H113.963V134.332C114.88 134.503 115.84 134.588 116.843 134.588C118.336 134.588 119.499 134.161 120.331 133.308C121.184 132.433 121.611 131.281 121.611 129.852ZM129.19 126.46C129.19 125.607 129.083 124.967 128.87 124.54C128.678 124.092 128.454 123.793 128.198 123.644C127.942 123.495 127.814 123.441 127.814 123.484H132.902C132.902 123.441 132.774 123.495 132.518 123.644C132.262 123.793 132.027 124.092 131.814 124.54C131.6 124.967 131.494 125.607 131.494 126.46V144.22H136.742C137.702 144.22 138.523 144.028 139.206 143.644C139.91 143.239 140.411 142.727 140.71 142.108L140.134 145.5H127.814C127.814 145.564 127.942 145.521 128.198 145.372C128.454 145.201 128.678 144.881 128.87 144.412C129.083 143.921 129.19 143.217 129.19 142.3V126.46ZM142.829 134.748C142.829 132.487 143.309 130.471 144.269 128.7C145.251 126.929 146.616 125.553 148.365 124.572C150.136 123.591 152.173 123.1 154.477 123.1C156.397 123.1 158.189 123.527 159.853 124.38C161.539 125.212 162.883 126.471 163.885 128.156C164.909 129.841 165.421 131.868 165.421 134.236C165.421 136.497 164.931 138.513 163.949 140.284C162.989 142.055 161.624 143.431 159.853 144.412C158.104 145.393 156.077 145.884 153.773 145.884C151.853 145.884 150.051 145.468 148.365 144.636C146.701 143.783 145.357 142.513 144.333 140.828C143.331 139.143 142.829 137.116 142.829 134.748ZM162.861 134.716C162.861 132.775 162.456 131.025 161.645 129.468C160.856 127.889 159.757 126.663 158.349 125.788C156.963 124.892 155.395 124.444 153.645 124.444C152.045 124.444 150.616 124.849 149.357 125.66C148.12 126.471 147.149 127.623 146.445 129.116C145.741 130.588 145.389 132.305 145.389 134.268C145.389 136.209 145.784 137.969 146.573 139.548C147.384 141.105 148.483 142.332 149.869 143.228C151.277 144.103 152.856 144.54 154.605 144.54C156.205 144.54 157.624 144.135 158.861 143.324C160.12 142.513 161.101 141.372 161.805 139.9C162.509 138.407 162.861 136.679 162.861 134.716ZM176.121 134.428C177.102 134.428 177.955 134.204 178.681 133.756C179.406 133.287 179.95 132.689 180.313 131.964C180.697 131.217 180.889 130.439 180.889 129.628C180.889 128.796 180.707 128.017 180.345 127.292C180.003 126.545 179.47 125.937 178.745 125.468C178.019 124.999 177.134 124.764 176.089 124.764H173.369V142.556C173.369 143.409 173.475 144.06 173.689 144.508C173.902 144.935 174.137 145.223 174.393 145.372C174.649 145.5 174.777 145.543 174.777 145.5H169.689C169.689 145.543 169.817 145.489 170.073 145.34C170.329 145.191 170.553 144.903 170.745 144.476C170.958 144.049 171.065 143.409 171.065 142.556V126.556C171.065 125.681 170.958 125.02 170.745 124.572C170.553 124.103 170.329 123.793 170.073 123.644C169.817 123.473 169.689 123.42 169.689 123.484H176.025C177.689 123.484 179.054 123.761 180.121 124.316C181.209 124.849 181.987 125.553 182.457 126.428C182.947 127.281 183.193 128.22 183.193 129.244C183.193 130.097 182.99 130.94 182.585 131.772C182.179 132.583 181.593 133.297 180.825 133.916C180.078 134.513 179.203 134.929 178.201 135.164L177.689 135.26L183.321 142.428C184.067 143.26 184.686 143.9 185.177 144.348C185.667 144.796 186.019 145.095 186.233 145.244C186.467 145.393 186.606 145.479 186.649 145.5H182.905L174.201 134.428H176.121ZM189.533 145.5C189.533 145.564 189.661 145.521 189.917 145.372C190.173 145.201 190.397 144.881 190.589 144.412C190.802 143.921 190.909 143.217 190.909 142.3V126.588C190.909 125.713 190.802 125.052 190.589 124.604C190.397 124.135 190.173 123.815 189.917 123.644C189.661 123.473 189.533 123.42 189.533 123.484H201.117V126.684C200.733 125.404 199.581 124.764 197.661 124.764H193.213V133.852H198.717C199.143 133.852 199.506 133.788 199.805 133.66C200.103 133.511 200.327 133.361 200.477 133.212C200.626 133.063 200.711 132.967 200.733 132.924V136.028C200.711 135.985 200.626 135.889 200.477 135.74C200.327 135.591 200.103 135.452 199.805 135.324C199.527 135.196 199.175 135.132 198.749 135.132H193.213V144.22H198.205C199.165 144.22 199.986 144.028 200.669 143.644C201.373 143.239 201.874 142.727 202.173 142.108L201.597 145.5H189.533Z" fill="#0B0D17"/>
</svg>
